<svg xmlns="http://www.w3.org/2000/svg" width="40" height="40" viewBox="0 0 40 40" fill="none">
  <path d="M38.8166 5.93737C38.8028 5.70855 38.7057 5.49269 38.5437 5.33059C38.3816 5.1685 38.1657 5.07141 37.9369 5.05769C29.9681 4.58894 23.5806 6.99831 20.8509 11.5046C19.0337 14.5061 19.0728 18.1733 20.9337 21.6608C19.7405 23.0267 18.9088 24.6701 18.515 26.4405L15.4212 23.3452C16.6947 20.8296 16.6869 18.1967 15.3712 16.0249C13.3697 12.7202 8.71812 10.9483 2.92125 11.2921C2.69217 11.3058 2.4761 11.4031 2.31397 11.5655C2.15184 11.728 2.05492 11.9442 2.04156 12.1733C1.70094 17.9686 3.46969 22.6202 6.77437 24.6217C7.85067 25.2796 9.08798 25.6267 10.3494 25.6249C11.6557 25.6114 12.9404 25.2902 14.0994 24.6874L18.2494 28.8249V34.5624C18.2494 34.8111 18.3482 35.0496 18.524 35.2254C18.6998 35.4012 18.9383 35.5 19.1869 35.5C19.4356 35.5 19.6741 35.4012 19.8499 35.2254C20.0257 35.0496 20.1245 34.8111 20.1245 34.5624L20.1244 28.8296C20.1181 26.6818 20.8808 24.6028 22.2744 22.9686C24.0259 23.8952 25.8244 24.3608 27.5587 24.3608C29.2552 24.3664 30.9201 23.903 32.3697 23.0217C36.8759 20.2952 39.2853 13.9061 38.8166 5.93737ZM7.74625 23.0171C5.19781 21.4749 3.77906 17.8124 3.87437 13.1249C8.56187 13.0233 12.2197 14.4436 13.7619 16.9921C14.6494 18.4561 14.7244 20.1764 14.0025 21.928L9.84937 17.7733C9.67346 17.5974 9.43487 17.4986 9.18609 17.4986C8.93731 17.4986 8.69872 17.5974 8.52281 17.7733C8.3469 17.9492 8.24807 18.1878 8.24807 18.4366C8.24807 18.6854 8.3469 18.924 8.52281 19.0999L12.6822 23.2577C10.9306 23.9796 9.21031 23.9061 7.74625 23.0171ZM31.3994 21.4202C29.0962 22.8139 26.3775 22.8546 23.6384 21.5608L32.3509 12.8499C32.438 12.7628 32.5071 12.6594 32.5543 12.5456C32.6014 12.4318 32.6257 12.3098 32.6257 12.1866C32.6257 12.0634 32.6014 11.9414 32.5543 11.8276C32.5071 11.7138 32.438 11.6104 32.3509 11.5233C32.2638 11.4362 32.1604 11.3671 32.0466 11.32C31.9328 11.2728 31.8108 11.2486 31.6877 11.2486C31.5645 11.2486 31.4425 11.2728 31.3287 11.32C31.2149 11.3671 31.1115 11.4362 31.0244 11.5233L22.3119 20.2358C21.0181 17.4967 21.0619 14.778 22.4525 12.4764C24.7212 8.72644 30.1181 6.66706 36.9837 6.8905C37.2072 13.7499 35.1462 19.1499 31.3994 21.4202Z" fill="#151515" stroke="#151515"/>
</svg>