<svg xmlns="http://www.w3.org/2000/svg" width="56" height="40" viewBox="0 0 56 40" fill="none">
  <g clip-path="url(#clip0_1_3934)">
    <path opacity="0.07" d="M51.5789 2.31592H4.42105C1.91579 2.31592 0 4.23171 0 6.73697V33.2633C0 35.7686 2.06316 37.6843 4.42105 37.6843H51.5789C54.0842 37.6843 56 35.7686 56 33.2633V6.73697C56 4.23171 53.9368 2.31592 51.5789 2.31592Z" fill="black"/>
    <path d="M51.5789 3.78955C53.1999 3.78955 54.5263 5.11587 54.5263 6.73692V33.2632C54.5263 34.8843 53.1999 36.2106 51.5789 36.2106H4.421C2.79995 36.2106 1.47363 34.8843 1.47363 33.2632V6.73692C1.47363 5.11587 2.79995 3.78955 4.421 3.78955H51.5789Z" fill="#006FCF"/>
    <path d="M32.4385 31.6951V19.2852L54.5261 19.3043V22.7321L51.9736 25.4614L54.5261 28.2127V31.7127H50.4498L48.2835 29.3224L46.132 31.7216L32.4385 31.6921V31.6951Z" fill="white"/>
    <path d="M33.9141 30.3335V20.6514H42.1254V22.8811H36.5726V24.396H41.9928V26.5888H36.5726V28.0773H42.1254V30.3335H33.9141Z" fill="#006FCF"/>
    <path d="M42.084 30.3335L46.6274 25.4865L42.084 20.6499H45.6002L48.3766 23.7196L51.1619 20.6514H54.5263V20.7265L50.0802 25.4865L54.5263 30.1979V30.335H51.1265L48.3015 27.2358L45.5044 30.3364H42.084V30.3335Z" fill="#006FCF"/>
    <path d="M33.4674 8.26953H38.7933L40.6634 12.5152V8.26953H47.236L48.3707 11.4512L49.507 8.26953H54.5263V20.6794H28L33.4674 8.26953Z" fill="white"/>
    <path d="M34.477 9.61768L30.1797 19.2939H33.1271L33.9376 17.356H38.3292L39.1397 19.2939H42.1607L37.8812 9.61768H34.477ZM34.8454 15.1838L36.1348 12.1038L37.4214 15.1838H34.8454Z" fill="#006FCF"/>
    <path d="M42.1191 19.2924V9.61475L46.2617 9.62948L48.3956 15.5787L50.5412 9.61622H54.5261V19.291L51.9619 19.3145V12.6682L49.5391 19.291H47.196L44.7261 12.6461V19.2924H42.1206H42.1191Z" fill="#006FCF"/>
  </g>
  <defs>
    <clipPath id="clip0_1_3934">
      <rect width="56" height="40" fill="white"/>
    </clipPath>
  </defs>
</svg>