<svg xmlns="http://www.w3.org/2000/svg" width="12" height="14" viewBox="0 0 12 14" fill="none">
  <path d="M2.12274 14H10.08C11.2967 14 12 13.2878 12 11.8766V4.78775C12 3.37682 11.2901 2.66434 9.87698 2.66434H8.80219C8.76181 1.22594 7.53126 0 6.00332 0C4.46874 0 3.23819 1.22594 3.19752 2.66434H2.12303C0.71681 2.66434 0 3.36981 0 4.78775V11.8769C0 13.2945 0.71681 14 2.12303 14M6.00332 1.04125C6.95637 1.04125 7.67982 1.76746 7.71385 2.66463H4.29278C4.3199 1.76746 5.04334 1.04125 6.00332 1.04125ZM2.14293 12.8974C1.46679 12.8974 1.08834 12.5344 1.08834 11.8222V4.8424C1.08834 4.13021 1.46679 3.76696 2.14293 3.76696H9.86371C10.526 3.76696 10.9114 4.13021 10.9114 4.8424V11.8219C10.9114 12.5344 10.526 12.8974 10.0596 12.8974H2.14293Z" fill="#151515"/>
</svg>