<svg xmlns="http://www.w3.org/2000/svg" width="56" height="40" viewBox="0 0 56 40" fill="none">
  <g clip-path="url(#clip0_1_3944)">
    <path opacity="0.07" d="M51.5789 2.31592H4.42105C1.91579 2.31592 0 4.23171 0 6.73697V33.2633C0 35.7686 2.06316 37.6843 4.42105 37.6843H51.5789C54.0842 37.6843 56 35.7686 56 33.2633V6.73697C56 4.23171 53.9368 2.31592 51.5789 2.31592Z" fill="black"/>
    <path d="M51.5789 3.78955C53.1999 3.78955 54.5263 5.11587 54.5263 6.73692V33.2632C54.5263 34.8843 53.1999 36.2106 51.5789 36.2106H4.421C2.79995 36.2106 1.47363 34.8843 1.47363 33.2632V6.73692C1.47363 5.11587 2.79995 3.78955 4.421 3.78955H51.5789Z" fill="white"/>
    <path d="M5.26095 12.8673H2.94727V20.9725H5.26095C6.48411 20.9725 7.36832 20.6778 8.14937 20.0441C9.07779 19.2778 9.62306 18.1283 9.62306 16.9346C9.60832 14.5325 7.82516 12.8673 5.26095 12.8673ZM7.11779 18.9683C6.61674 19.4104 5.98305 19.6167 4.95148 19.6167H4.52411V14.2525H4.95148C5.96832 14.2525 6.58727 14.4294 7.11779 14.901C7.66305 15.3873 7.98727 16.1389 7.98727 16.9199C7.98727 17.701 7.66305 18.482 7.11779 18.9683ZM10.3452 12.8673H11.922V20.9725H10.3452V12.8673ZM15.7831 15.9767C14.8399 15.6231 14.5599 15.3873 14.5599 14.9599C14.5599 14.4441 15.061 14.061 15.7388 14.061C16.2104 14.061 16.6083 14.2525 17.0062 14.7241L17.8315 13.6483C17.1536 13.0589 16.3431 12.7494 15.4441 12.7494C14.0146 12.7494 12.9094 13.7515 12.9094 15.0778C12.9094 16.1978 13.4252 16.7725 14.8988 17.3031C15.5178 17.5241 15.8273 17.6715 15.9894 17.7599C16.2988 17.9662 16.4609 18.261 16.4609 18.5999C16.4609 19.2631 15.9452 19.7494 15.2378 19.7494C14.4862 19.7494 13.882 19.3662 13.5136 18.6736L12.4967 19.661C13.2188 20.7367 14.1031 21.2083 15.2967 21.2083C16.9325 21.2083 18.0967 20.1178 18.0967 18.541C18.1262 17.2294 17.5809 16.6399 15.7831 15.9767ZM18.6125 16.9346C18.6125 19.322 20.4841 21.1641 22.8862 21.1641C23.5641 21.1641 24.1536 21.0315 24.861 20.6925V18.8357C24.2273 19.4694 23.6673 19.7199 22.9599 19.7199C21.3683 19.7199 20.2336 18.5704 20.2336 16.9199C20.2336 15.3578 21.3978 14.1346 22.8862 14.1346C23.6378 14.1346 24.2125 14.3999 24.861 15.0483V13.1915C24.1683 12.8378 23.5936 12.6904 22.9157 12.6904C20.5431 12.6904 18.6125 14.5767 18.6125 16.9346ZM37.4167 18.3199L35.2504 12.8673H33.5262L36.9599 21.1789H37.8146L41.3073 12.8673H39.5978L37.4167 18.3199ZM42.0294 20.9725H46.5094V19.602H43.6062V17.421H46.4062V16.0504H43.6062V14.2525H46.5094V12.8673H42.0294V20.9725ZM52.7725 15.2694C52.7725 13.7515 51.7262 12.882 49.8988 12.882H47.5557V20.9873H49.1325V17.7304H49.3388L51.5199 20.9873H53.4652L50.9157 17.5683C52.1094 17.3178 52.7725 16.5073 52.7725 15.2694ZM49.5894 16.6104H49.1325V14.1494H49.6188C50.6062 14.1494 51.1367 14.562 51.1367 15.3578C51.1367 16.1683 50.6062 16.6104 49.5894 16.6104Z" fill="#231F20"/>
    <path d="M29.709 21.2672C30.8546 21.2672 31.9532 20.8121 32.7633 20.002C33.5733 19.192 34.0284 18.0934 34.0284 16.9478C34.0284 15.8022 33.5733 14.7036 32.7633 13.8935C31.9532 13.0835 30.8546 12.6284 29.709 12.6284C28.5634 12.6284 27.4648 13.0835 26.6548 13.8935C25.8447 14.7036 25.3896 15.8022 25.3896 16.9478C25.3896 18.0934 25.8447 19.192 26.6548 20.002C27.4648 20.8121 28.5634 21.2672 29.709 21.2672Z" fill="url(#paint0_linear_1_3944)"/>
    <path opacity="0.65" d="M29.709 21.2672C30.8546 21.2672 31.9532 20.8121 32.7633 20.002C33.5733 19.192 34.0284 18.0934 34.0284 16.9478C34.0284 15.8022 33.5733 14.7036 32.7633 13.8935C31.9532 13.0835 30.8546 12.6284 29.709 12.6284C28.5634 12.6284 27.4648 13.0835 26.6548 13.8935C25.8447 14.7036 25.3896 15.8022 25.3896 16.9478C25.3896 18.0934 25.8447 19.192 26.6548 20.002C27.4648 20.8121 28.5634 21.2672 29.709 21.2672Z" fill="url(#paint1_linear_1_3944)"/>
    <path d="M53.8927 13.3773C53.8927 13.2299 53.7895 13.1562 53.6274 13.1562H53.3916V13.8636H53.5684V13.5836L53.7748 13.8636H53.9811L53.7453 13.5689C53.8337 13.5541 53.8927 13.4805 53.8927 13.3773ZM53.5979 13.4805H53.5684V13.2889H53.5979C53.6863 13.2889 53.7305 13.3184 53.7305 13.3773C53.7305 13.451 53.6863 13.4805 53.5979 13.4805Z" fill="#231F20"/>
    <path d="M53.657 12.8911C53.3181 12.8911 53.0381 13.1711 53.0381 13.5101C53.0381 13.849 53.3181 14.129 53.657 14.129C53.996 14.129 54.276 13.849 54.276 13.5101C54.276 13.1711 53.996 12.8911 53.657 12.8911ZM53.657 14.0259C53.3918 14.0259 53.156 13.8048 53.156 13.5101C53.156 13.2301 53.377 12.9943 53.657 12.9943C53.9223 12.9943 54.1433 13.2301 54.1433 13.5101C54.1433 13.7901 53.9223 14.0259 53.657 14.0259Z" fill="#231F20"/>
    <path d="M54.5261 21.4502C54.5261 21.4502 39.9219 31.6024 13.2275 36.2106H51.5772C52.3548 36.2106 53.101 35.9034 53.653 35.3557C54.2051 34.8081 54.5184 34.0644 54.5246 33.2868L54.56 28.8363L54.5261 21.4502Z" fill="#F48120"/>
  </g>
  <defs>
    <linearGradient id="paint0_linear_1_3944" x1="31.9151" y1="20.405" x2="28.9309" y2="15.732" gradientUnits="userSpaceOnUse">
      <stop stop-color="#F89F20"/>
      <stop offset="0.25" stop-color="#F79A20"/>
      <stop offset="0.533" stop-color="#F68D20"/>
      <stop offset="0.62" stop-color="#F58720"/>
      <stop offset="0.723" stop-color="#F48120"/>
      <stop offset="1" stop-color="#F37521"/>
    </linearGradient>
    <linearGradient id="paint1_linear_1_3944" x1="31.445" y1="20.3417" x2="27.0829" y2="11.8149" gradientUnits="userSpaceOnUse">
      <stop stop-color="#F58720"/>
      <stop offset="0.359" stop-color="#E16F27"/>
      <stop offset="0.703" stop-color="#D4602C"/>
      <stop offset="0.982" stop-color="#D05B2E"/>
    </linearGradient>
    <clipPath id="clip0_1_3944">
      <rect width="56" height="40" fill="white"/>
    </clipPath>
  </defs>
</svg>