<svg xmlns="http://www.w3.org/2000/svg" width="158" height="48" viewBox="0 0 158 48" fill="none">
  <path d="M123.401 10.4637L122.488 13.0796L115.921 26.7261L109.183 12.4911L108.408 10.3232L107.997 12.9634L105.341 25.8081L101.641 25.7814L107.308 0.0242212L110.5 6.6803L115.902 18.59L124.342 0L130.196 25.7136L126.489 25.762L123.848 13.4478L123.401 10.4637Z" fill="black"/>
  <path d="M39.2189 26.869L23.7162 11.6942L21.1645 8.94745L21.179 25.8226L17.4646 25.7984V0.125957L24.1904 6.69726L35.5021 17.9966L35.5045 1.03669L39.19 1.05364L39.2189 26.869Z" fill="black"/>
  <path d="M99.8433 25.7378L95.3754 25.7741L87.1185 14.5087L87.0463 25.7959L83.1778 25.7862L83.1538 1.06572L90.9822 1.12628C93.0067 1.14081 94.7977 2.08545 95.982 3.69619C97.4264 6.14741 97.5973 9.25261 96.2252 11.7741C95.3104 13.455 93.6349 14.2423 91.6297 14.591L99.8457 25.7354L99.8433 25.7378ZM93.103 8.21108C93.0885 6.42837 92.2123 5.03806 90.4598 4.74982L87.1089 4.59723L87.1017 11.5948L90.6861 11.4035C92.335 11.3139 93.1174 9.87026 93.103 8.21108Z" fill="black"/>
  <path d="M65.3232 21.298L60.6459 20.242C63.2891 15.5987 68.0699 13.6586 73.1709 13.7603C69.7742 15.1676 66.4931 16.289 64.1196 19.2658C70.1185 20.2371 75.6046 17.8053 77.0923 11.561C75.5396 12.0188 74.1217 12.2464 72.5763 12.3046L67.5403 12.4983C63.058 13.0942 60.9468 15.2766 59.0571 19.2731C59.0692 17.6188 59.5314 16.1752 60.1356 14.7509C61.1611 12.6921 62.9954 11.4132 65.328 10.936L65.3329 1.08272L78.9459 1.04639L78.9748 4.57789L69.247 4.56578L69.2639 10.4153L74.6249 10.5146C76.4544 10.4904 77.9035 9.67653 79.0253 8.23292C78.9122 11.0111 78.2646 13.5205 77.0008 15.87C75.4794 18.6094 73.0746 20.6174 70.0077 21.298C69.8561 21.2835 69.312 21.2326 69.3096 21.3852L69.2856 22.2499H78.9844L78.9699 25.8057H65.3208L65.316 21.2932L65.3232 21.298Z" fill="black"/>
  <path d="M13.6539 14.3949L3.93345 14.39L3.94789 22.2814L13.6347 22.2572L13.6467 25.8298L0 25.8105V1.0948L13.6395 1.07057L13.6347 4.61903H3.9503L3.95271 10.8827L13.6515 10.8851L13.6539 14.3949Z" fill="black"/>
  <path d="M62.3213 1.04879L53.8984 14.6855L53.9248 25.7984L50.0107 25.8153L49.9818 14.7097L41.7369 1.07301L45.9255 1.02942L52.0207 11.326L58.2362 1.05364L62.3213 1.04879Z" fill="black"/>
  <path d="M137.124 14.5644L128.944 1.00275L133.085 0.956734L139.231 11.2654L140.129 9.60625L145.461 0.949466L149.462 0.983376L141.091 14.5087L141.111 25.7354L137.127 25.7523L137.124 14.5644Z" fill="black"/>
  <path d="M114.544 41.2832C113.283 42.7486 111.388 43.3977 111.008 42.5524C110.854 42.2133 110.775 41.6514 110.698 41.1282C109.908 42.2472 108.543 43.6109 108.037 43.1531L107.323 42.5088C106.242 43.8289 104.455 44.4393 103.897 43.7126C103.719 43.4825 103.579 42.9642 103.488 42.5645C103.04 43.3275 102.431 44.1026 101.485 44.5022C101.259 44.5991 100.683 44.3375 100.549 44.1292C100.414 43.9209 100.202 43.3469 100.303 43.1022L101.87 39.3116C103.481 39.6119 101.321 41.2711 101.141 43.6739C102.214 43.0732 102.835 42.177 103.408 41.1718L104.588 39.0984C105.909 39.2946 104.111 40.9901 104.328 43.2258C105.628 42.9472 106.839 42.177 107.563 41.0773C108.608 39.4932 109.626 37.5652 111.28 38.5631L113.906 32.7621L114.159 32.2607C114.227 32.125 114.653 32.2825 114.718 32.4205C114.783 32.5586 114.797 32.9219 114.737 33.0624L112.257 38.7157C111.79 39.7815 111.511 40.8666 111.569 42.1649C112.968 41.7458 114.296 40.9635 114.949 39.6991L116.107 37.4586L116.603 37.4392C117.426 37.4078 115.57 39.8783 115.346 41.5327C116.793 41.0071 118.189 40.215 119.029 39.0136C119.549 38.2725 119.811 37.4344 120.678 37.0081C121.374 36.6666 122.462 36.8507 122.522 37.7735L122.609 39.0912C123.771 38.9749 124.708 38.3524 125.827 37.696C125.259 39.251 123.646 39.6531 122.296 40.0043C121.537 41.3341 120.129 42.0244 119.498 41.4455C119.25 41.2178 119.019 40.6801 118.834 40.2514C117.674 41.4746 115.94 42.7777 115.074 42.1406C114.869 41.9905 114.715 41.6247 114.547 41.2784L114.544 41.2832ZM121.701 37.7638C121.326 37.4707 120.75 38.0981 120.878 38.4129C120.984 38.6697 121.371 38.9676 121.687 39.0669C121.901 38.7884 121.954 37.9624 121.701 37.7638ZM121.234 39.9244L120.262 38.9604C120.168 38.8683 120.009 38.9168 119.985 39.0476L119.701 40.559C119.679 40.6704 119.773 40.7697 119.884 40.7576C120.567 40.6752 121.032 40.2901 121.236 39.922L121.234 39.9244ZM110.902 39.004C109.349 39.4739 108.478 40.9514 108.232 42.3465C109.523 41.4988 110.291 40.2998 110.902 39.004Z" fill="black"/>
  <path d="M96.8486 38.723C96.4803 38.878 96.2444 38.1756 96.2925 37.7784C96.3407 37.3763 96.8053 37.3908 97.2001 37.1656C99.3522 35.9375 100.541 31.9749 98.8611 32.624C96.4924 33.5396 94.5401 35.2981 93.2209 37.4417C92.3687 38.8247 92.7178 40.2562 93.854 41.3123C94.6845 42.0825 95.5246 42.9787 95.9098 44.0106C96.4033 45.3307 95.9796 46.7234 94.776 47.3386C93.2065 48.1404 91.3553 48.2251 89.7833 47.5275C88.8036 47.0916 88.3053 45.8999 88.7169 45.0569C88.8108 44.8656 89.2754 45.1853 89.285 45.3718C89.3958 47.3096 92.4722 47.4718 94.3379 46.4012C95.3272 45.8345 95.6522 44.5483 94.8939 43.6884L93.062 41.6151C91.8247 40.2126 91.4419 38.5874 92.3639 36.9306C94.1116 33.7915 98.3724 30.6306 100.108 31.9289C101.244 32.779 100.303 34.9251 99.4172 36.5649L100.657 36.1555L101.639 34.1863C101.735 33.9901 102.385 34.3462 102.308 34.5448L101.805 35.8528C103.43 35.3489 105.459 35.3611 105.455 35.9521L105.45 36.4268C105.45 36.4123 102.896 36.3614 101.227 36.9233C100.358 38.8175 99.552 40.6002 98.9646 42.5863L98.618 44.6452C98.5409 45.0957 99.0489 45.7182 99.3618 45.8926C99.4749 45.9556 99.4533 46.4424 99.3233 46.4594C99.162 46.4787 98.7576 46.4182 98.6372 46.3044C96.7355 44.5168 98.8948 40.2926 99.9853 37.4054L96.8462 38.7254L96.8486 38.723Z" fill="black"/>
  <path d="M133.292 36.8216C138.354 35.4822 142.312 27.5617 138.46 27.3486C137.228 27.2807 136.094 27.7143 134.989 28.3295C132.666 29.841 131.012 32.142 130.112 34.787L130.196 35.2908C130.213 35.3901 130.471 35.4313 130.591 35.4749L131.154 35.6759C131.275 35.7171 131.28 36.1676 131.166 36.2282C130.952 36.342 130.358 36.3905 130.124 36.296C129.315 35.969 129.214 34.5956 129.732 33.3749C131.198 29.9306 134.339 26.4863 138.095 26.5517C138.947 26.5662 139.83 26.8932 140.271 27.5351C140.706 28.1697 140.942 29.0925 140.738 29.9693C139.818 33.9199 136.628 36.9984 132.77 37.9673L130.533 43.1773C130.367 43.2185 130.139 43.2718 130.088 43.1822L129.818 42.7099L131.838 37.9382C131.747 37.788 131.53 37.3835 131.643 37.3206L132.18 37.0154C133.124 34.9202 133.863 32.7524 134.392 30.4949C134.573 30.4949 134.895 30.5337 134.931 30.6669L135.114 31.3427L133.285 36.8289L133.292 36.8216Z" fill="black"/>
  <path d="M145.824 36.8337C145.03 37.2382 144.669 38.6043 143.431 38.3815C142.666 38.2434 142.122 37.4175 142.31 36.5625C142.815 34.2323 144.577 33.0285 145.514 33.8351C146.111 34.351 146.125 35.0074 145.978 35.9497C147.158 35.7389 148.106 35.2424 149.185 34.54C148.778 36.1555 147.071 36.1991 145.824 36.8313V36.8337ZM145.258 34.6538C145.244 34.3825 144.548 34.4673 144.43 34.6708C144.32 34.8645 144.25 35.3126 144.368 35.4725C144.488 35.6324 144.876 35.7922 145.201 35.8358C145.242 35.6227 145.275 34.9977 145.256 34.6538H145.258ZM144.628 36.6884L143.504 35.6372C143.26 36.0901 142.947 36.9209 143.135 37.4998C143.744 37.5846 144.519 37.0396 144.625 36.6884H144.628Z" fill="black"/>
  <path d="M138.468 39.4399C137.916 39.4981 137.883 38.8344 138.056 38.3379L139.515 34.1524C139.888 34.2565 140.076 34.678 140.08 35.1406C140.622 34.5472 141.207 34.0119 142.102 33.9901C142.355 33.9828 142.808 34.4673 142.675 34.598C140.545 35.0946 139.582 37.3399 138.468 39.4399Z" fill="black"/>
  <path d="M117.568 37.2624C117.534 37.4828 117.045 37.7832 116.911 37.6645C116.718 37.4901 116.598 37.0856 116.711 36.8918L117.05 36.2984C117.122 36.1725 117.565 36.342 117.594 36.4825C117.623 36.623 117.611 36.9597 117.565 37.2624H117.568Z" fill="black"/>
  <path d="M158 2.95502C158 4.52943 156.777 5.76715 155.184 5.76715C153.59 5.76715 152.35 4.52943 152.35 2.95502C152.35 1.38062 153.607 0.176813 155.184 0.176813C156.76 0.176813 158 1.41453 158 2.95502ZM153.056 2.95502C153.056 4.19275 153.961 5.17372 155.2 5.17372C156.44 5.17372 157.295 4.19032 157.295 2.97198C157.295 1.75364 156.406 0.73633 155.184 0.73633C153.961 0.73633 153.056 1.73668 153.056 2.95502ZM154.75 4.41074H154.112V1.63253C154.363 1.58166 154.717 1.54775 155.169 1.54775C155.689 1.54775 155.923 1.63253 156.125 1.75121C156.276 1.8699 156.392 2.09031 156.392 2.3616C156.392 2.66679 156.158 2.90416 155.821 3.00589V3.0398C156.089 3.14153 156.24 3.34499 156.325 3.718C156.409 4.14188 156.459 4.31143 156.527 4.41316H155.841C155.756 4.31143 155.706 4.0571 155.622 3.73496C155.571 3.42977 155.403 3.29413 155.051 3.29413H154.75V4.41316V4.41074ZM154.767 2.83634H155.068C155.419 2.83634 155.706 2.71765 155.706 2.42942C155.706 2.17509 155.521 2.00554 155.119 2.00554C154.95 2.00554 154.834 2.02249 154.767 2.03945V2.83634Z" fill="black"/>
</svg>