<svg xmlns="http://www.w3.org/2000/svg" width="56" height="40" viewBox="0 0 56 40" fill="none">
  <g clip-path="url(#clip0_1_3927)">
    <path opacity="0.07" d="M51.5789 2.31592H4.42105C1.91579 2.31592 0 4.23171 0 6.73697V33.2633C0 35.7686 2.06316 37.6843 4.42105 37.6843H51.5789C54.0842 37.6843 56 35.7686 56 33.2633V6.73697C56 4.23171 53.9368 2.31592 51.5789 2.31592Z" fill="black"/>
    <path d="M51.5789 3.78955C53.1999 3.78955 54.5263 5.11587 54.5263 6.73692V33.2632C54.5263 34.8843 53.1999 36.2106 51.5789 36.2106H4.421C2.79995 36.2106 1.47363 34.8843 1.47363 33.2632V6.73692C1.47363 5.11587 2.79995 3.78955 4.421 3.78955H51.5789Z" fill="white"/>
    <path d="M22.1049 30.3157C27.8021 30.3157 32.4206 25.6971 32.4206 19.9999C32.4206 14.3026 27.8021 9.68408 22.1049 9.68408C16.4076 9.68408 11.7891 14.3026 11.7891 19.9999C11.7891 25.6971 16.4076 30.3157 22.1049 30.3157Z" fill="#EB001B"/>
    <path d="M33.8949 30.3157C39.5921 30.3157 44.2107 25.6971 44.2107 19.9999C44.2107 14.3026 39.5921 9.68408 33.8949 9.68408C28.1976 9.68408 23.5791 14.3026 23.5791 19.9999C23.5791 25.6971 28.1976 30.3157 33.8949 30.3157Z" fill="#F79E1B"/>
    <path d="M32.4212 20.0001C32.4212 16.4633 30.6528 13.3685 28.0002 11.6001C25.3475 13.5159 23.5791 16.6106 23.5791 20.0001C23.5791 23.3896 25.3475 26.6317 28.0002 28.4001C30.6528 26.6317 32.4212 23.5369 32.4212 20.0001Z" fill="#FF5F00"/>
  </g>
  <defs>
    <clipPath id="clip0_1_3927">
      <rect width="56" height="40" fill="white"/>
    </clipPath>
  </defs>
</svg>