<svg xmlns="http://www.w3.org/2000/svg" width="14" height="14" viewBox="0 0 14 14" fill="none">
  <g clip-path="url(#clip0_10_4228)">
    <path d="M7.31825 0.592896C7.21794 0.269165 6.78125 0.269165 6.68095 0.592896L5.3408 4.91841C5.29594 5.06318 5.1673 5.1612 5.02214 5.1612H0.68531C0.360731 5.1612 0.225778 5.59679 0.488368 5.79686L3.99694 8.47017C4.11437 8.55963 4.16351 8.71825 4.11865 8.86301L2.7785 13.1885C2.6782 13.5123 3.03151 13.7815 3.2941 13.5814L6.80266 10.9081C6.9201 10.8186 7.07913 10.8186 7.19652 10.9081L10.7051 13.5814C10.9677 13.7815 11.321 13.5123 11.2207 13.1885L9.8806 8.86301C9.83573 8.71825 9.88487 8.55963 10.0023 8.47017L13.5109 5.79686C13.7734 5.59679 13.6385 5.1612 13.3139 5.1612H8.97711C8.83193 5.1612 8.70327 5.06318 8.6584 4.91841L7.31825 0.592896Z" fill="#FCC97E"/>
  </g>
  <defs>
    <clipPath id="clip0_10_4228">
      <rect width="14" height="14" fill="white"/>
    </clipPath>
  </defs>
</svg>