<svg xmlns="http://www.w3.org/2000/svg" width="16" height="16" viewBox="0 0 16 16" fill="none">
  <path d="M8 7.68966C7.4258 7.68966 6.86449 7.52281 6.38705 7.21022C5.90962 6.89762 5.53751 6.45332 5.31777 5.9335C5.09803 5.41367 5.04054 4.84167 5.15256 4.28983C5.26458 3.73799 5.54109 3.23109 5.94711 2.83323C6.35313 2.43538 6.87044 2.16443 7.43361 2.05466C7.99678 1.9449 8.58052 2.00123 9.11102 2.21655C9.64151 2.43187 10.0949 2.7965 10.4139 3.26433C10.733 3.73216 10.9032 4.28217 10.9032 4.84483C10.9032 5.59932 10.5974 6.32292 10.0529 6.85642C9.50843 7.38993 8.76998 7.68966 8 7.68966ZM8 3.13793C7.65548 3.13793 7.31869 3.23804 7.03223 3.4256C6.74577 3.61315 6.5225 3.87973 6.39066 4.19163C6.25882 4.50352 6.22432 4.84672 6.29153 5.17783C6.35875 5.50893 6.52465 5.81307 6.76827 6.05179C7.01188 6.2905 7.32226 6.45307 7.66016 6.51893C7.99807 6.58479 8.34831 6.55099 8.66661 6.42179C8.98491 6.2926 9.25696 6.07383 9.44837 5.79313C9.63977 5.51243 9.74194 5.18242 9.74194 4.84483C9.74194 4.39213 9.55841 3.95798 9.23173 3.63787C8.90506 3.31777 8.46199 3.13793 8 3.13793ZM13.4194 13C13.266 12.998 13.1195 12.9375 13.011 12.8312C12.9025 12.7249 12.8407 12.5813 12.8387 12.431C12.8387 10.9517 12.0181 9.96552 8 9.96552C3.98194 9.96552 3.16129 10.9517 3.16129 12.431C3.16129 12.5819 3.10012 12.7267 2.99122 12.8334C2.88233 12.9401 2.73464 13 2.58065 13C2.42665 13 2.27896 12.9401 2.17007 12.8334C2.06117 12.7267 2 12.5819 2 12.431C2 8.82759 6.20387 8.82759 8 8.82759C9.79613 8.82759 14 8.82759 14 12.431C13.998 12.5813 13.9362 12.7249 13.8277 12.8312C13.7193 12.9375 13.5727 12.998 13.4194 13Z" fill="#151515"/>
</svg>