<svg xmlns="http://www.w3.org/2000/svg" width="56" height="40" viewBox="0 0 56 40" fill="none">
  <g clip-path="url(#clip0_1_3922)">
    <path opacity="0.07" d="M51.5789 2.31592H4.42105C1.91579 2.31592 0 4.23171 0 6.73697V33.2633C0 35.7686 2.06316 37.6843 4.42105 37.6843H51.5789C54.0842 37.6843 56 35.7686 56 33.2633V6.73697C56 4.23171 53.9368 2.31592 51.5789 2.31592Z" fill="black"/>
    <path d="M51.5789 3.78955C53.1999 3.78955 54.5263 5.11587 54.5263 6.73692V33.2632C54.5263 34.8843 53.1999 36.2106 51.5789 36.2106H4.421C2.79995 36.2106 1.47363 34.8843 1.47363 33.2632V6.73692C1.47363 5.11587 2.79995 3.78955 4.421 3.78955H51.5789Z" fill="white"/>
    <path d="M41.705 17.2002H41.2629C40.6734 18.6739 40.2313 19.4107 39.7892 21.6213H42.5892C42.1471 19.4107 42.1471 18.3792 41.705 17.2002ZM45.9787 25.8949H43.4734C43.3261 25.8949 43.3261 25.8949 43.1787 25.7476L42.884 24.4213L42.7366 24.1265H39.1997C39.0524 24.1265 38.905 24.1265 38.905 24.4213L38.4629 25.7476C38.4629 25.8949 38.3155 25.8949 38.3155 25.8949H35.2208L35.5155 25.1581L39.7892 15.137C39.7892 14.4002 40.2313 14.1055 40.9682 14.1055H43.1787C43.3261 14.1055 43.4734 14.1055 43.4734 14.4002L45.5366 23.9792C45.684 24.5686 45.8313 25.0107 45.8313 25.6002C45.9787 25.7476 45.9787 25.7476 45.9787 25.8949ZM26.2313 25.4528L26.8208 22.8002C26.9682 22.8002 27.1155 22.9476 27.1155 22.9476C28.1471 23.3897 29.1787 23.6844 30.2103 23.537C30.505 23.537 30.9471 23.3897 31.2418 23.2423C31.9787 22.9476 31.9787 22.2107 31.3892 21.6213C31.0945 21.3265 30.6524 21.1792 30.2103 20.8844C29.6208 20.5897 29.0313 20.2949 28.5892 19.8528C26.8208 18.3792 27.4103 16.316 28.4418 15.2844C29.3261 14.6949 29.7682 14.1055 30.9471 14.1055C32.7155 14.1055 34.6313 14.1055 35.5155 14.4002H35.6629C35.5155 15.2844 35.3682 16.0213 35.0734 16.9055C34.3366 16.6107 33.5997 16.316 32.8629 16.316C32.4208 16.316 31.9787 16.316 31.5366 16.4634C31.2418 16.4634 31.0945 16.6107 30.9471 16.7581C30.6524 17.0528 30.6524 17.4949 30.9471 17.7897L31.684 18.3792C32.2734 18.6739 32.8629 18.9686 33.305 19.2634C34.0418 19.7055 34.7787 20.4423 34.9261 21.3265C35.2208 22.6528 34.7787 23.8318 33.5997 24.716C32.8629 25.3055 32.5682 25.6002 31.5366 25.6002C29.4734 25.6002 27.8524 25.7476 26.5261 25.3055C26.3787 25.6002 26.3787 25.6002 26.2313 25.4528ZM21.0734 25.8949C21.2208 24.8634 21.2208 24.8634 21.3682 24.4213C22.105 21.1792 22.8418 17.7897 23.4313 14.5476C23.5787 14.2528 23.5787 14.1055 23.8734 14.1055H26.5261C26.2313 15.8739 25.9366 17.2002 25.4945 18.8213C25.0524 21.0318 24.6103 23.2423 24.0208 25.4528C24.0208 25.7476 23.8734 25.7476 23.5787 25.7476M7.36816 14.4002C7.36816 14.2528 7.6629 14.1055 7.81027 14.1055H12.8208C13.5576 14.1055 14.1471 14.5476 14.2945 15.2844L15.6208 21.7686C15.6208 21.916 15.6208 21.916 15.7682 22.0634C15.7682 21.916 15.9155 21.916 15.9155 21.916L19.0103 14.4002C18.8629 14.2528 19.0103 14.1055 19.1576 14.1055H22.2524C22.2524 14.2528 22.2524 14.2528 22.105 14.4002L17.5366 25.1581C17.3892 25.4528 17.3892 25.6002 17.2418 25.7476C17.0945 25.8949 16.7997 25.7476 16.505 25.7476H14.2945C14.1471 25.7476 13.9997 25.7476 13.9997 25.4528L11.6418 16.316C11.3471 16.0213 10.905 15.5792 10.3155 15.4318C9.43132 14.9897 7.81027 14.6949 7.51553 14.6949L7.36816 14.4002Z" fill="#142688"/>
  </g>
  <defs>
    <clipPath id="clip0_1_3922">
      <rect width="56" height="40" fill="white"/>
    </clipPath>
  </defs>
</svg>