<svg xmlns="http://www.w3.org/2000/svg" width="40" height="26" viewBox="0 0 40 26" fill="none">
  <path d="M3.28536 0.0831427C5.45501 0.00471301 8.08518 0.0701322 10.2829 0.069141L24.205 0.0758337L32.252 0.061832C34.1057 0.0561325 37.316 -0.306899 38.7819 0.79347C39.5136 1.3426 39.9245 2.42451 39.9442 3.32577C40.0117 6.41216 39.9341 9.50858 39.9374 12.5983L39.9643 18.8387C39.9762 21.7529 40.5446 25.0088 36.6691 25.2501C30.2922 25.481 22.7703 25.2726 16.3038 25.2794L7.91528 25.2951C5.21683 25.3 0.228879 26.1052 0.0833861 22.223C-0.0258575 19.3078 0.068594 16.3281 0.0670331 13.4034L0.0421939 6.62031C0.0331625 3.68719 -0.59103 0.445555 3.28536 0.0831427Z" fill="#EEEEEE"/>
  <path d="M2.61712 1.17165C4.35172 1.06026 6.75468 1.12766 8.52772 1.12729L19.1335 1.12705L30.4597 1.12767C32.7423 1.12668 35.3333 1.06596 37.576 1.19197C38.2521 1.67333 38.297 1.72338 38.7904 2.36594C39.0523 4.00862 39.085 21.8912 38.7745 22.8449C38.5586 23.5084 37.9748 23.886 37.3782 24.1745C34.8827 24.2894 32.18 24.2365 29.6662 24.2364L15.0727 24.2064L7.04064 24.2266C4.37174 24.2321 1.01486 25.0389 1.09315 21.4634C1.16662 18.1086 0.918238 14.5005 1.07486 11.1587C1.18956 8.71143 0.78309 4.53657 1.27357 2.26496C1.71691 1.7043 1.97725 1.47496 2.61712 1.17165Z" fill="white"/>
  <path d="M18.0006 7.71101C18.8883 7.70395 19.7811 7.6835 20.6866 7.71188C22.9954 7.78411 24.322 9.88933 22.7147 11.7732C22.0579 12.5428 21.3441 12.5889 20.3975 12.6438L19.5275 12.6384C18.2288 13.3795 19.5526 15.0471 18.9834 15.8632C18.6953 16.0579 18.4673 16.0125 18.1238 15.9946C17.9088 15.6301 18.0001 8.7244 18.0006 7.71101Z" fill="#646567"/>
  <path d="M19.0533 8.72315C20.8924 8.69887 23.2372 8.80765 21.9006 11.2984C20.9314 11.7884 20.1361 11.6782 19.0483 11.6674L19.0533 8.72315Z" fill="white"/>
  <path d="M24.9619 10.2136C26.8998 10.0757 28.2553 10.4769 28.4609 12.7761C28.5168 13.4001 28.5583 15.5684 28.1944 15.9943C27.8759 16.0423 27.7553 16.0945 27.4748 15.9445L27.3959 15.5411C26.7191 15.1507 26.0206 17.319 23.694 15.3317C21.8345 11.6828 26.7083 12.7072 27.3103 12.3803C27.2753 11.4059 26.1955 10.6637 25.3924 11.2982C25.1854 11.4618 24.7474 11.6349 24.4911 11.738C24.066 11.6159 23.8121 11.4832 23.7984 11.0409C24.0659 10.6503 24.5399 10.4448 24.9619 10.2136Z" fill="#646567"/>
  <path d="M25.7086 13.1777C26.2237 13.1843 26.6905 13.1981 27.1211 13.477C27.6047 14.257 26.9458 14.6577 26.3666 15.1338C25.5505 15.2414 25.0803 15.265 24.5922 14.5305C24.4663 13.6187 24.9172 13.4499 25.7086 13.1777Z" fill="white"/>
  <path d="M5.9043 9.64181C7.72279 6.94113 10.3745 6.1914 13.1885 8.10072C13.2516 8.14359 13.314 8.18733 13.3757 8.23218L11.9872 9.64441C10.129 8.309 8.5008 8.94994 7.46807 10.892L5.9043 9.64181Z" fill="#EC1C27"/>
  <path d="M31.4651 14.3917C32.0214 13.1008 32.4297 11.7365 33.0946 10.5019C33.4779 10.2686 33.3997 10.3429 33.9146 10.3495L34.0141 10.5245C33.9463 11.3626 32.8996 13.5058 32.5085 14.3747C31.9334 15.5885 31.4561 17.1178 30.7655 18.2633C30.6171 18.5093 30.2635 18.4553 29.9432 18.4734L29.8101 18.3486C29.8773 17.7492 30.6597 16.2476 30.9454 15.628L28.6333 10.3405C28.9975 10.3135 29.2303 10.2706 29.5758 10.3919C30.2763 11.0185 31.036 13.3594 31.4651 14.3917Z" fill="#646567"/>
  <path d="M7.48396 12.748C8.37036 14.6154 10.0419 15.1354 11.874 14.197L13.3019 15.4383C10.6946 17.5507 7.63756 16.6208 5.89893 13.9885C6.39533 13.5546 6.95659 13.1473 7.48396 12.748Z" fill="#2BB426"/>
  <path d="M10.1816 10.9688L14.6863 10.9716C14.7248 12.9862 14.6957 13.8521 13.3019 15.4404L11.8739 14.199C12.3988 13.6583 12.4884 13.4459 12.8124 12.785L10.1859 12.7819L10.1816 10.9688Z" fill="#1274C8"/>
  <path d="M5.90399 9.64258L7.46776 10.8927C7.34447 11.6168 7.3298 12.0088 7.48382 12.7493C6.95644 13.1485 6.39518 13.5559 5.89878 13.9898C5.18943 12.2156 5.29804 11.3768 5.90399 9.64258Z" fill="#F89F18"/>
</svg>